<svg width="5773" height="1706" viewBox="0 0 5773 1706" fill="none" xmlns="http://www.w3.org/2000/svg">
<path d="M88.8838 1299.46C88.8838 1290.59 83.7492 1286.15 73.4945 1286.15C63.2332 1286.15 58.1065 1290.59 58.1065 1299.46C58.1065 1308.34 63.2332 1312.77 73.4945 1312.77C83.7492 1312.77 88.8838 1308.34 88.8838 1299.46ZM201.349 1154.49C208.293 1163.73 211.765 1174.21 211.765 1185.93V1338.34H165.241L102.684 1232.36C98.1678 1225.26 91.3945 1222.25 82.3638 1223.31C72.9252 1224.37 68.2052 1229.34 68.2052 1238.22V1259.52C69.0292 1259.17 70.8798 1258.99 73.7478 1258.99C87.7025 1258.99 99.4958 1262.99 109.139 1270.97C118.781 1278.96 123.606 1288.46 123.606 1299.46C123.606 1305.14 122.271 1310.56 119.596 1315.7C116.923 1320.85 113.223 1325.29 108.495 1329.02C103.768 1332.75 98.3145 1335.68 92.1532 1337.82C85.9825 1339.94 79.4052 1341.01 72.4118 1341.01C56.3705 1341.01 43.4185 1336.94 33.5558 1328.77C23.6865 1320.61 18.7545 1310.14 18.7545 1297.36V1235.6C18.7545 1223.54 23.8825 1213.24 34.1345 1204.72C43.1505 1196.91 54.2265 1191.94 67.3505 1189.81C74.3185 1188.33 81.4998 1187.58 88.8838 1187.58C116.352 1187.58 135.017 1196.65 144.864 1214.78L155.933 1235.04C157.57 1237.52 161.875 1249.96 168.852 1272.35H170.082C165.176 1243.91 162.73 1227.03 162.73 1221.69V1195.03C162.73 1183.29 157.8 1173.69 147.953 1166.22C138.106 1158.76 125.18 1155.02 109.172 1155.02C77.5705 1155.02 58.2865 1166.62 51.3092 1189.81H0.839844C3.30118 1179.16 8.01984 1169.67 14.9972 1161.33C21.9745 1152.99 30.3852 1145.8 40.2318 1139.76C50.0785 1133.73 61.1625 1129.11 73.4705 1125.92C85.7785 1122.73 98.7065 1121.13 112.252 1121.13C123.737 1121.13 135.025 1122.37 146.11 1124.85C158.002 1126.99 165.38 1128.05 168.248 1128.05C174.377 1128.05 180.605 1125.57 186.939 1120.61C193.272 1115.65 197.461 1109.28 199.506 1101.5L245.673 1124.29C236.641 1139.13 221.864 1149.2 201.349 1154.49Z" fill="#1D70B8"/>
<path d="M340.56 1299.46C340.56 1290.59 335.425 1286.15 325.171 1286.15C314.909 1286.15 309.783 1290.59 309.783 1299.46C309.783 1308.34 314.909 1312.77 325.171 1312.77C335.425 1312.77 340.56 1308.34 340.56 1299.46ZM409.092 1338.34V1189.13C409.092 1178.47 403.932 1169.94 393.629 1163.55C385.381 1157.87 374.663 1155.02 361.476 1155.02C340.863 1155.02 324.576 1160.35 312.628 1171.01C329.597 1178.12 342.843 1186.47 352.363 1196.06C330.364 1202.1 319.368 1214 319.368 1231.77V1259.48C320.192 1259.13 322.049 1258.95 324.951 1258.95C339.004 1258.95 350.895 1262.95 360.612 1270.94C370.327 1278.93 375.185 1288.43 375.185 1299.44C375.185 1305.13 373.848 1310.55 371.175 1315.7C368.501 1320.85 364.801 1325.29 360.073 1329.02C355.345 1332.76 349.893 1335.68 343.731 1337.82C337.56 1339.95 330.983 1341.01 323.989 1341.01C307.949 1341.01 294.997 1336.94 285.135 1328.77C275.264 1320.61 270.333 1310.13 270.333 1297.35V1230.27C270.333 1213.24 279.935 1201.16 299.139 1194.06C285.999 1185.9 269.584 1179.51 249.891 1174.9C276.56 1139.05 314.136 1121.13 362.608 1121.13C376.163 1121.13 388.796 1122.73 400.509 1125.92C412.213 1129.11 422.28 1133.64 430.7 1139.5C439.119 1145.35 445.795 1152.54 450.727 1161.06C455.657 1169.57 458.127 1179.16 458.127 1189.81V1338.34H409.092Z" fill="#1D70B8"/>
<path d="M619.866 1338.34V1194.45C619.866 1168.17 606.115 1155.02 578.622 1155.02C554.407 1155.02 539.426 1166.62 533.687 1189.81H482.598C488.336 1168.52 499.927 1151.75 517.37 1139.5C534.812 1127.25 556.044 1121.13 581.084 1121.13C607.346 1121.13 628.546 1127.34 644.684 1139.76C660.823 1152.18 668.9 1168.51 668.9 1188.74V1338.34H619.866Z" fill="#1D70B8"/>
<path d="M758.975 1164.19C758.975 1155.32 753.839 1150.88 743.585 1150.88C733.324 1150.88 728.197 1155.32 728.197 1164.19C728.197 1173.07 733.324 1177.5 743.585 1177.5C753.839 1177.5 758.975 1173.07 758.975 1164.19ZM918.951 1325.81C909.128 1334.16 891.743 1338.34 866.784 1338.34H718.767V1304.44C736.82 1304.44 746.871 1301.43 748.924 1295.39C749.332 1294.33 749.544 1292.2 749.544 1289.01V1203.88C748.712 1204.23 746.855 1204.41 743.96 1204.41C729.9 1204.41 718.017 1200.42 708.301 1192.43C698.585 1184.45 693.727 1174.96 693.727 1163.96C693.727 1158.29 695.064 1152.88 697.737 1147.74C700.411 1142.6 704.112 1138.17 708.839 1134.44C713.567 1130.72 719.011 1127.79 725.181 1125.66C731.343 1123.53 737.929 1122.46 744.923 1122.46C760.955 1122.46 773.907 1126.55 783.777 1134.72C793.64 1142.88 798.579 1153.36 798.579 1166.14V1303.55H849.611C862.717 1303.55 871.325 1302.31 875.433 1299.82C881.579 1296.63 884.651 1289.7 884.651 1279.05V1125.14H933.687V1284.51C933.687 1303.69 928.772 1317.46 918.951 1325.81Z" fill="#1D70B8"/>
<path d="M861.679 1047.32C861.679 1039.16 856.959 1035.08 847.52 1035.08C838.081 1035.08 833.363 1039.16 833.363 1047.32C833.363 1055.49 838.081 1059.57 847.52 1059.57C856.959 1059.57 861.679 1055.49 861.679 1047.32ZM960.784 1074.95C939.445 1087.3 914.209 1093.47 885.071 1093.47C872.763 1093.47 861.483 1092.32 851.221 1090.01C840.967 1087.7 832.041 1084.59 824.437 1080.68C816.849 1076.78 810.899 1072.16 806.588 1066.83C802.284 1061.51 800.124 1055.64 800.124 1049.24C799.716 1038.94 804.028 1030.06 813.051 1022.6C822.091 1015.14 833.575 1011.4 847.52 1011.4C861.068 1011.4 872.152 1014.97 880.76 1022.11C889.383 1029.24 893.687 1037.64 893.687 1047.27C893.687 1052.26 892.048 1057.26 888.763 1062.25C904.772 1062.61 918.521 1059.23 930.007 1052.13C941.507 1045.04 948.068 1034.92 949.707 1021.77H999.565C996.688 1043.79 983.761 1061.51 960.784 1074.95Z" fill="#1D70B8"/>
<path d="M1182.38 1297.33C1182.38 1288.46 1177.04 1284.02 1166.38 1284.02C1155.7 1284.02 1150.37 1288.46 1150.37 1297.33C1150.37 1306.21 1155.7 1310.64 1166.38 1310.64C1177.04 1310.64 1182.38 1306.21 1182.38 1297.33ZM1023.57 1164.19C1023.57 1155.32 1018.43 1150.88 1008.18 1150.88C997.92 1150.88 992.793 1155.32 992.793 1164.19C992.793 1173.07 997.92 1177.51 1008.18 1177.51C1018.43 1177.51 1023.57 1173.07 1023.57 1164.19ZM1218.01 1298.51C1218.01 1309.9 1212.99 1319.67 1202.94 1327.86C1192.88 1336.04 1180.68 1340.12 1166.32 1340.12C1159.34 1340.12 1152.78 1339.05 1146.62 1336.92C1140.47 1334.79 1135.03 1331.86 1130.32 1328.12C1125.6 1324.39 1121.91 1319.94 1119.24 1314.78C1116.57 1309.63 1115.24 1304.2 1115.24 1298.51C1097.67 1307.36 1081.74 1320.64 1067.44 1338.34H1014.14V1204.02C1013.31 1204.38 1011.45 1204.55 1008.56 1204.55C994.496 1204.55 982.612 1200.56 972.896 1192.56C963.181 1184.57 958.322 1175.06 958.322 1164.04C958.322 1158.35 959.66 1152.94 962.333 1147.78C965.006 1142.63 968.706 1138.19 973.434 1134.46C978.161 1130.73 983.606 1127.8 989.777 1125.66C995.938 1123.53 1002.52 1122.46 1009.52 1122.46C1025.55 1122.46 1038.5 1126.55 1048.37 1134.74C1058.24 1142.92 1063.17 1153.41 1063.17 1166.21V1289.44C1087.77 1270.95 1115.25 1259.22 1145.6 1254.23V1125.14H1194.63V1263.84C1210.21 1272.02 1218.01 1283.57 1218.01 1298.51Z" fill="#1D70B8"/>
<path d="M1284.47 1164.19C1284.47 1155.32 1279.34 1150.88 1269.09 1150.88C1258.82 1150.88 1253.7 1155.32 1253.7 1164.19C1253.7 1173.07 1258.82 1177.5 1269.09 1177.5C1279.34 1177.5 1284.47 1173.07 1284.47 1164.19ZM1444.45 1325.82C1434.63 1334.17 1417.24 1338.34 1392.28 1338.34H1244.27V1304.44C1262.32 1304.44 1272.37 1301.49 1274.42 1295.56C1274.83 1294.5 1275.04 1292.36 1275.04 1289.17V1203.96C1274.21 1204.32 1272.35 1204.5 1269.46 1204.5C1255.4 1204.5 1243.52 1200.5 1233.8 1192.52C1224.09 1184.53 1219.23 1175.03 1219.23 1164.02C1219.23 1158.34 1220.56 1152.93 1223.24 1147.78C1225.91 1142.63 1229.61 1138.19 1234.34 1134.46C1239.07 1130.74 1244.51 1127.82 1250.68 1125.68C1256.84 1123.55 1263.43 1122.48 1270.42 1122.48C1286.45 1122.48 1299.41 1126.57 1309.28 1134.74C1319.14 1142.9 1324.08 1153.37 1324.08 1166.15V1303.55H1375.11C1388.22 1303.55 1396.83 1302.31 1400.93 1299.82C1407.08 1296.63 1410.15 1289.72 1410.15 1279.06V1061.36H1459.19V1284.54C1459.19 1303.72 1454.27 1317.48 1444.45 1325.82Z" fill="#1D70B8"/>
<path d="M1326.86 1036.92C1326.86 1028.75 1322.14 1024.67 1312.7 1024.67C1303.26 1024.67 1298.54 1028.75 1298.54 1036.92C1298.54 1045.09 1303.26 1049.16 1312.7 1049.16C1322.14 1049.16 1326.86 1045.09 1326.86 1036.92ZM1416.36 1081.23C1395.02 1094.75 1368.34 1101.5 1336.32 1101.5C1319.08 1101.5 1302.25 1099.72 1285.82 1096.17C1300.19 1090.13 1309.22 1082.66 1312.92 1073.76C1300.19 1073.76 1289.41 1070.21 1280.58 1063.1C1271.76 1055.99 1267.34 1047.46 1267.34 1037.5C1267.34 1027.54 1271.86 1018.92 1280.88 1011.63C1289.92 1004.34 1300.8 1000.7 1313.53 1000.7C1327.91 1000.7 1339.6 1004.44 1348.63 1011.9C1357.66 1019.37 1362.39 1028.44 1362.8 1039.1C1363.21 1047.28 1361.57 1056.7 1357.88 1067.37C1372.25 1064.88 1383.74 1058.93 1392.35 1049.53C1400.97 1040.12 1405.27 1029.38 1405.27 1017.31H1453.29C1450.83 1045 1438.52 1066.31 1416.36 1081.23Z" fill="#1D70B8"/>
<path d="M1584.77 1234.49C1584.77 1225.61 1579.64 1221.17 1569.38 1221.17C1559.12 1221.17 1553.99 1225.61 1553.99 1234.49C1553.99 1243.37 1559.12 1247.8 1569.38 1247.8C1579.64 1247.8 1584.77 1243.37 1584.77 1234.49ZM1689.51 1325.83C1679.87 1334.17 1662.36 1338.34 1636.94 1338.34H1514.6V1236.61C1514.6 1223.47 1519.43 1212.91 1529.09 1204.92C1538.76 1196.94 1551.81 1192.94 1568.26 1192.94C1575.25 1192.94 1581.83 1194 1588 1196.13C1594.16 1198.26 1599.61 1201.18 1604.34 1204.9C1609.07 1208.62 1612.77 1213.06 1615.44 1218.2C1618.12 1223.34 1619.45 1228.74 1619.45 1234.42C1619.45 1245.41 1614.63 1254.81 1604.98 1262.6C1595.34 1270.4 1583.55 1274.3 1569.59 1274.3C1566.72 1274.3 1564.88 1274.13 1564.06 1273.77V1303.55H1620.06C1633.1 1303.55 1641.67 1302.31 1645.75 1299.82C1651.86 1296.63 1654.92 1289.71 1654.92 1279.06V1193.88C1654.92 1182.18 1650.21 1172.77 1640.77 1165.67C1631.33 1158.58 1618.6 1155.02 1602.6 1155.02C1571.82 1155.02 1552.12 1166.62 1543.5 1189.81H1492.41C1499.8 1168.16 1513.55 1151.3 1533.66 1139.23C1553.77 1127.16 1577.97 1121.13 1606.29 1121.13C1633.37 1121.13 1656.53 1127.34 1675.77 1139.76C1694.56 1151.83 1703.96 1167.44 1703.96 1186.61V1284.04C1703.96 1303.56 1699.14 1317.49 1689.51 1325.83Z" fill="#1D70B8"/>
<path d="M1873.38 1164.19C1873.38 1155.32 1868.24 1150.88 1857.99 1150.88C1847.73 1150.88 1842.6 1155.32 1842.6 1164.19C1842.6 1173.07 1847.73 1177.5 1857.99 1177.5C1868.24 1177.5 1873.38 1173.07 1873.38 1164.19ZM1900.3 1326.88C1891.92 1334.52 1876.69 1338.34 1854.6 1338.34H1817.05C1795.71 1294.99 1764.32 1254.3 1722.88 1216.28L1768.42 1198.16C1786.89 1215.56 1802.89 1232.61 1816.44 1249.29C1829.98 1265.98 1841.26 1282.67 1850.29 1299.35C1859.32 1299.35 1863.84 1294.38 1863.84 1284.44V1204.02C1863 1204.37 1861.15 1204.55 1858.25 1204.55C1844.19 1204.55 1832.31 1200.55 1822.59 1192.56C1812.88 1184.56 1808.02 1175.06 1808.02 1164.04C1808.02 1158.35 1809.36 1152.94 1812.03 1147.78C1814.7 1142.63 1818.4 1138.19 1823.13 1134.46C1827.86 1130.73 1833.3 1127.8 1839.47 1125.66C1845.64 1123.53 1852.22 1122.46 1859.21 1122.46C1875.25 1122.46 1888.2 1126.56 1898.07 1134.72C1907.93 1142.9 1912.87 1153.38 1912.87 1166.17V1288.24C1912.87 1306.36 1908.68 1319.24 1900.3 1326.88Z" fill="#1D70B8"/>
<path d="M2103.73 1338.34V1194.45C2103.73 1182.02 2099.3 1172.34 2090.44 1165.41C2081.57 1158.49 2070.13 1155.02 2056.11 1155.02C2035.5 1155.02 2019.22 1160.35 2007.27 1171.01C2024.17 1178.12 2037.37 1186.47 2046.86 1196.06C2024.95 1202.1 2014.01 1214 2014.01 1231.76V1338.34H1964.97V1230.26C1964.97 1213.23 1974.57 1201.16 1993.78 1194.06C1980.64 1185.9 1964.22 1179.51 1944.53 1174.9C1971.2 1139.05 2008.77 1121.13 2057.25 1121.13C2070.8 1121.13 2083.43 1122.73 2095.15 1125.92C2106.85 1129.11 2116.92 1133.64 2125.34 1139.5C2133.76 1145.35 2140.43 1152.54 2145.37 1161.06C2150.3 1169.57 2152.77 1179.16 2152.77 1189.81V1338.34H2103.73Z" fill="#1D70B8"/>
<path d="M2080.67 1047.32C2080.67 1039.16 2075.95 1035.08 2066.51 1035.08C2057.07 1035.08 2052.35 1039.16 2052.35 1047.32C2052.35 1055.49 2057.07 1059.57 2066.51 1059.57C2075.95 1059.57 2080.67 1055.49 2080.67 1047.32ZM2179.77 1074.95C2158.43 1087.3 2133.2 1093.47 2104.06 1093.47C2091.75 1093.47 2080.47 1092.32 2070.21 1090.01C2059.96 1087.7 2051.03 1084.59 2043.43 1080.68C2035.84 1076.78 2029.89 1072.16 2025.58 1066.83C2021.27 1061.51 2019.11 1055.64 2019.11 1049.24C2018.7 1038.94 2023.02 1030.06 2032.04 1022.6C2041.08 1015.14 2052.56 1011.4 2066.51 1011.4C2080.06 1011.4 2091.14 1014.97 2099.75 1022.11C2108.37 1029.24 2112.68 1037.64 2112.68 1047.27C2112.68 1052.26 2111.04 1057.26 2107.75 1062.25C2123.76 1062.61 2137.51 1059.23 2149 1052.13C2160.5 1045.04 2167.06 1034.92 2168.7 1021.77H2218.55C2215.68 1043.79 2202.75 1061.51 2179.77 1074.95Z" fill="#1D70B8"/>
<path d="M2401.37 1297.33C2401.37 1288.46 2396.03 1284.02 2385.37 1284.02C2374.69 1284.02 2369.36 1288.46 2369.36 1297.33C2369.36 1306.21 2374.69 1310.64 2385.37 1310.64C2396.03 1310.64 2401.37 1306.21 2401.37 1297.33ZM2242.56 1164.19C2242.56 1155.32 2237.42 1150.88 2227.17 1150.88C2216.91 1150.88 2211.78 1155.32 2211.78 1164.19C2211.78 1173.07 2216.91 1177.51 2227.17 1177.51C2237.42 1177.51 2242.56 1173.07 2242.56 1164.19ZM2437 1298.51C2437 1309.9 2431.97 1319.67 2421.92 1327.86C2411.87 1336.04 2399.66 1340.12 2385.31 1340.12C2378.33 1340.12 2371.76 1339.05 2365.61 1336.92C2359.45 1334.79 2354.02 1331.86 2349.31 1328.12C2344.59 1324.39 2340.9 1319.94 2338.23 1314.78C2335.56 1309.63 2334.23 1304.2 2334.23 1298.51C2316.66 1307.36 2300.73 1320.64 2286.43 1338.34H2233.13V1204.02C2232.29 1204.38 2230.44 1204.55 2227.54 1204.55C2213.48 1204.55 2201.6 1200.56 2191.88 1192.56C2182.17 1184.57 2177.31 1175.06 2177.31 1164.04C2177.31 1158.35 2178.65 1152.94 2181.32 1147.78C2183.99 1142.63 2187.69 1138.19 2192.42 1134.46C2197.15 1130.73 2202.59 1127.8 2208.76 1125.66C2214.93 1123.53 2221.51 1122.46 2228.51 1122.46C2244.54 1122.46 2257.49 1126.55 2267.36 1134.74C2277.22 1142.92 2282.16 1153.41 2282.16 1166.21V1289.44C2306.76 1270.95 2334.24 1259.22 2364.58 1254.23V1125.14H2413.62V1263.84C2429.2 1272.02 2437 1283.57 2437 1298.51Z" fill="#1D70B8"/>
<path d="M2573.64 1214.25C2573.64 1205.38 2568.5 1200.94 2558.25 1200.94C2547.99 1200.94 2542.86 1205.38 2542.86 1214.25C2542.86 1223.13 2547.99 1227.56 2558.25 1227.56C2568.5 1227.56 2573.64 1223.13 2573.64 1214.25ZM2610.52 1338.34V1201.38C2610.52 1188.6 2605.96 1178.12 2596.87 1169.94C2586.52 1160.35 2572.05 1155.38 2553.43 1155.02C2534.81 1154.67 2520.23 1158.75 2509.69 1167.28C2499.14 1175.81 2493.45 1186.11 2492.63 1198.19C2492.22 1206.36 2493.26 1217.55 2495.76 1231.76C2496.1 1233.54 2496.38 1237.54 2496.59 1243.75C2496.79 1249.97 2496.69 1258.23 2496.28 1268.53H2497.51C2498.74 1258.94 2500.59 1246.69 2503.05 1231.76C2505.92 1218.62 2509.41 1208.49 2513.52 1201.38C2522.96 1185.4 2537.73 1177.41 2557.83 1177.41C2570.55 1177.41 2581.01 1180.87 2589.22 1187.8C2597.43 1194.73 2601.54 1203.34 2601.54 1213.64C2601.54 1223.95 2597.33 1232.65 2588.92 1239.75C2580.51 1246.86 2570.14 1250.41 2557.83 1250.41C2551.67 1250.41 2545.11 1249.17 2538.14 1246.68C2529.11 1269.06 2519.87 1299.62 2510.44 1338.34H2460.75V1299.47C2460.75 1292.38 2460.03 1284.57 2458.6 1276.06C2457.16 1267.54 2455.02 1258.13 2452.17 1247.83C2446.44 1226.18 2443.59 1209.68 2443.59 1198.32C2443.59 1177.39 2453.46 1159.46 2473.21 1144.55C2495.01 1128.94 2522.36 1121.13 2555.27 1121.13C2587.77 1121.13 2613.48 1128.58 2632.41 1143.48C2650.5 1158.04 2659.55 1175.79 2659.55 1196.73V1338.34H2610.52Z" fill="#1D70B8"/>
<path d="M2849.31 1299.46C2849.31 1290.59 2844.18 1286.15 2833.93 1286.15C2823.66 1286.15 2818.54 1290.59 2818.54 1299.46C2818.54 1308.34 2823.66 1312.77 2833.93 1312.77C2844.18 1312.77 2849.31 1308.34 2849.31 1299.46ZM2873.94 1328.77C2864.07 1336.94 2851.12 1341.01 2835.08 1341.01C2828.09 1341.01 2821.51 1339.95 2815.34 1337.82C2809.17 1335.68 2803.73 1332.76 2799 1329.02C2794.27 1325.29 2790.57 1320.85 2787.9 1315.7C2785.23 1310.55 2783.89 1305.13 2783.89 1299.44C2783.89 1288.43 2788.75 1278.93 2798.46 1270.94C2808.18 1262.95 2820.06 1258.95 2834.12 1258.95C2837.01 1258.95 2838.87 1259.13 2839.71 1259.48V1194.46C2839.71 1182.74 2835.08 1173.23 2825.85 1165.95C2816.61 1158.67 2804.61 1155.02 2789.84 1155.02C2776.29 1155.02 2764.39 1158.15 2754.14 1164.39C2743.88 1170.63 2737.31 1179.11 2734.45 1189.81H2683.97C2688.48 1168.52 2700.69 1151.75 2720.59 1139.5C2740.49 1127.25 2764.6 1121.13 2792.92 1121.13C2806.87 1121.13 2819.69 1122.73 2831.37 1125.92C2843.05 1129.11 2853.19 1133.64 2861.77 1139.5C2870.34 1145.35 2876.99 1152.27 2881.69 1160.26C2886.39 1168.24 2888.74 1177.03 2888.74 1186.61V1297.35C2888.74 1310.13 2883.8 1320.61 2873.94 1328.77Z" fill="#1D70B8"/>
<path d="M2978.49 1164.19C2978.49 1155.32 2973.36 1150.88 2963.1 1150.88C2952.84 1150.88 2947.72 1155.32 2947.72 1164.19C2947.72 1173.07 2952.84 1177.5 2963.1 1177.5C2973.36 1177.5 2978.49 1173.07 2978.49 1164.19ZM3138.47 1325.81C3128.65 1334.16 3111.26 1338.34 3086.3 1338.34H2938.29V1304.44C2956.34 1304.44 2966.39 1301.43 2968.44 1295.39C2968.85 1294.33 2969.06 1292.2 2969.06 1289.01V1203.88C2968.23 1204.23 2966.37 1204.41 2963.48 1204.41C2949.42 1204.41 2937.54 1200.42 2927.82 1192.43C2918.1 1184.45 2913.25 1174.96 2913.25 1163.96C2913.25 1158.29 2914.58 1152.88 2917.26 1147.74C2919.93 1142.6 2923.63 1138.17 2928.36 1134.44C2933.09 1130.72 2938.53 1127.79 2944.7 1125.66C2950.86 1123.53 2957.45 1122.46 2964.44 1122.46C2980.48 1122.46 2993.43 1126.55 3003.3 1134.72C3013.16 1142.88 3018.1 1153.36 3018.1 1166.14V1303.55H3069.13C3082.24 1303.55 3090.84 1302.31 3094.95 1299.82C3101.1 1296.63 3104.17 1289.7 3104.17 1279.05V1125.14H3153.21V1284.51C3153.21 1303.69 3148.29 1317.46 3138.47 1325.81Z" fill="#1D70B8"/>
<path d="M3322.49 1214.25C3322.49 1205.38 3317.36 1200.94 3307.11 1200.94C3296.84 1200.94 3291.72 1205.38 3291.72 1214.25C3291.72 1223.13 3296.84 1227.56 3307.11 1227.56C3317.36 1227.56 3322.49 1223.13 3322.49 1214.25ZM3359.38 1338.34V1201.38C3359.38 1188.6 3354.82 1178.12 3345.72 1169.94C3335.38 1160.35 3320.91 1155.38 3302.29 1155.02C3283.67 1154.67 3269.09 1158.75 3258.54 1167.28C3248 1175.81 3242.31 1186.11 3241.48 1198.19C3241.08 1206.36 3242.12 1217.55 3244.61 1231.76C3244.96 1233.54 3245.23 1237.54 3245.45 1243.75C3245.65 1249.97 3245.54 1258.23 3245.13 1268.53H3246.37C3247.6 1258.94 3249.45 1246.69 3251.91 1231.76C3254.78 1218.62 3258.27 1208.49 3262.37 1201.38C3271.81 1185.4 3286.58 1177.41 3306.69 1177.41C3319.41 1177.41 3329.87 1180.87 3338.08 1187.8C3346.29 1194.73 3350.39 1203.34 3350.39 1213.64C3350.39 1223.95 3346.19 1232.65 3337.78 1239.75C3329.37 1246.86 3319 1250.41 3306.69 1250.41C3300.53 1250.41 3293.97 1249.17 3287 1246.68C3277.97 1269.06 3268.73 1299.62 3259.29 1338.34H3209.61V1299.47C3209.61 1292.38 3208.89 1284.57 3207.45 1276.06C3206.02 1267.54 3203.88 1258.13 3201.02 1247.83C3195.3 1226.18 3192.45 1209.68 3192.45 1198.32C3192.45 1177.39 3202.32 1159.46 3222.07 1144.55C3243.86 1128.94 3271.22 1121.13 3304.13 1121.13C3336.63 1121.13 3362.33 1128.58 3381.26 1143.48C3399.36 1158.04 3408.41 1175.79 3408.41 1196.73V1338.34H3359.38Z" fill="#1D70B8"/>
<path d="M3369.8 1395.85C3369.8 1387.68 3365.08 1383.6 3355.64 1383.6C3346.21 1383.6 3341.49 1387.68 3341.49 1395.85C3341.49 1404.01 3346.21 1408.1 3355.64 1408.1C3365.08 1408.1 3369.8 1404.01 3369.8 1395.85ZM3359.03 1476.6V1432.52H3355.93C3342.69 1432.52 3331.72 1428.89 3323.03 1421.63C3314.34 1414.36 3310 1405.78 3310 1395.87C3310 1386.31 3314.52 1377.89 3323.57 1370.64C3332.62 1363.37 3343.72 1359.75 3356.88 1359.75C3371.68 1359.75 3383.91 1363.46 3393.57 1370.9C3403.25 1378.33 3408.07 1387.36 3408.07 1397.99V1476.6H3359.03Z" fill="#1D70B8"/>
<path d="M3501.45 1274.96C3487.53 1275.32 3480.58 1281.36 3480.58 1293.07C3480.58 1301.24 3484.67 1305.32 3492.86 1305.32C3498.58 1305.32 3501.45 1302.3 3501.45 1296.27V1274.96ZM3510.31 1164.19C3510.31 1155.32 3505.18 1150.88 3494.93 1150.88C3484.66 1150.88 3479.54 1155.32 3479.54 1164.19C3479.54 1173.07 3484.66 1177.51 3494.93 1177.51C3505.18 1177.51 3510.31 1173.07 3510.31 1164.19ZM3630.23 1338.34H3612.97C3608.03 1326.99 3599.7 1315.83 3587.98 1304.84C3576.26 1293.85 3563.42 1285.87 3549.44 1280.91V1300.64C3549.44 1312.03 3544.94 1321.45 3535.95 1328.92C3526.96 1336.39 3515.11 1340.12 3500.4 1340.12C3484.79 1340.12 3471.24 1335.77 3459.75 1327.05C3448.25 1318.34 3442.5 1306.69 3442.5 1292.11C3442.5 1279.31 3448.04 1268.19 3459.13 1258.77C3470.21 1249.35 3483.97 1243.75 3500.4 1241.96V1204.09C3499.58 1204.45 3497.74 1204.62 3494.88 1204.62C3480.95 1204.62 3469.17 1200.62 3459.54 1192.62C3449.92 1184.62 3445.11 1175.1 3445.11 1164.08C3445.11 1158.39 3446.44 1152.96 3449.09 1147.8C3451.75 1142.65 3455.44 1138.21 3460.15 1134.47C3464.85 1130.74 3470.27 1127.8 3476.41 1125.67C3482.54 1123.54 3489.08 1122.46 3496.04 1122.46C3512 1122.46 3524.89 1126.55 3534.71 1134.74C3544.52 1142.92 3549.44 1153.41 3549.44 1166.21V1243.57C3578.34 1249.97 3601.47 1261.35 3618.82 1277.71V1125.14H3667.85V1303.69C3667.85 1326.79 3655.31 1338.34 3630.23 1338.34Z" fill="#1D70B8"/>
<path d="M3823.99 1299.46C3823.99 1290.59 3818.85 1286.15 3808.6 1286.15C3798.34 1286.15 3793.21 1290.59 3793.21 1299.46C3793.21 1308.34 3798.34 1312.77 3808.6 1312.77C3818.85 1312.77 3823.99 1308.34 3823.99 1299.46ZM3810.24 1015.54C3803.68 1015.54 3793.45 1013.06 3779.56 1008.08C3773.02 1005.6 3767.19 1003.65 3762.09 1002.23C3756.98 1000.8 3752.37 999.919 3748.27 999.557C3733.09 998.498 3723.04 1002.05 3718.12 1010.21C3741.5 1011.28 3760.96 1015.54 3776.49 1022.99C3794.07 1031.87 3802.85 1043.78 3802.85 1058.69V1259.51C3803.68 1259.16 3805.53 1258.98 3808.44 1258.98C3822.49 1258.98 3834.38 1262.98 3844.1 1270.97C3853.81 1278.95 3858.67 1288.45 3858.67 1299.46C3858.67 1305.15 3857.33 1310.57 3854.66 1315.72C3851.99 1320.87 3848.29 1325.31 3843.56 1329.03C3838.83 1332.76 3833.38 1335.69 3827.22 1337.82C3821.05 1339.95 3814.47 1341.01 3807.47 1341.01C3791.43 1341.01 3778.48 1336.93 3768.62 1328.76C3758.75 1320.59 3753.82 1310.12 3753.82 1297.33V1064.55C3753.82 1050.7 3742.94 1041.82 3721.19 1037.92C3709.29 1035.78 3685.7 1035.07 3650.41 1035.78C3656.15 1015.62 3667.65 999.174 3684.88 986.435C3703.34 972.991 3723.04 966.447 3743.97 966.802C3752.99 967.158 3764.23 969.291 3777.72 973.193C3790.39 976.747 3799.79 978.518 3805.93 978.518C3813.31 978.518 3821.31 974.169 3829.93 965.465L3865.02 989.967C3847.78 1007.01 3829.52 1015.54 3810.24 1015.54Z" fill="#1D70B8"/>
<path d="M3998.14 1299.46C3998.14 1290.59 3993.01 1286.15 3982.75 1286.15C3972.49 1286.15 3967.36 1290.59 3967.36 1299.46C3967.36 1308.34 3972.49 1312.77 3982.75 1312.77C3993.01 1312.77 3998.14 1308.34 3998.14 1299.46ZM4011.17 1169.18C4004.23 1169.18 3994.62 1166.87 3982.34 1162.24C3970.04 1157.62 3959.37 1155.3 3950.34 1155.3C3934.74 1155.3 3924.48 1160.47 3919.56 1170.79C3939.25 1170.79 3959.78 1172.92 3981.11 1177.17C4018.72 1184.62 4037.53 1201.11 4037.53 1226.64V1297.39C4037.53 1310.16 4032.6 1320.63 4022.73 1328.78C4012.86 1336.94 3999.91 1341.01 3983.88 1341.01C3976.88 1341.01 3970.3 1339.95 3964.14 1337.83C3957.97 1335.71 3952.52 1332.79 3947.79 1329.07C3943.07 1325.35 3939.37 1320.93 3936.69 1315.8C3934.02 1310.67 3932.68 1305.28 3932.68 1299.61C3932.68 1288.64 3937.54 1279.18 3947.26 1271.21C3956.97 1263.25 3968.86 1259.27 3982.92 1259.27C3985.81 1259.27 3987.67 1259.45 3988.5 1259.8V1227.95C3988.5 1213.09 3971.46 1204.24 3937.41 1201.41C3910.32 1199.16 3882.21 1198.57 3853.08 1199.62C3857.6 1178.62 3868.47 1160.65 3885.71 1145.69C3904.99 1129.32 3927.77 1121.13 3954.03 1121.13C3962.24 1121.13 3972.5 1123.08 3984.81 1127C3997.48 1130.92 4004.43 1132.88 4005.66 1132.88C4012.61 1132.88 4019.35 1128.96 4025.89 1121.13L4062.77 1143.55C4050.46 1160.64 4033.26 1169.18 4011.17 1169.18Z" fill="#1D70B8"/>
<path d="M4209.81 1214.25C4209.81 1205.38 4204.67 1200.94 4194.42 1200.94C4184.16 1200.94 4179.03 1205.38 4179.03 1214.25C4179.03 1223.13 4184.16 1227.56 4194.42 1227.56C4204.67 1227.56 4209.81 1223.13 4209.81 1214.25ZM4246.69 1338.34V1201.38C4246.69 1188.6 4242.13 1178.12 4233.04 1169.94C4222.69 1160.35 4208.22 1155.38 4189.6 1155.02C4170.99 1154.67 4156.4 1158.75 4145.86 1167.28C4135.31 1175.81 4129.62 1186.11 4128.8 1198.19C4128.39 1206.36 4129.43 1217.55 4131.93 1231.76C4132.27 1233.54 4132.55 1237.54 4132.76 1243.75C4132.96 1249.97 4132.86 1258.23 4132.45 1268.53H4133.68C4134.91 1258.94 4136.76 1246.69 4139.22 1231.76C4142.09 1218.62 4145.58 1208.49 4149.69 1201.38C4159.13 1185.4 4173.9 1177.41 4194 1177.41C4206.72 1177.41 4217.18 1180.87 4225.39 1187.8C4233.6 1194.73 4237.71 1203.34 4237.71 1213.64C4237.71 1223.95 4233.5 1232.65 4225.09 1239.75C4216.68 1246.86 4206.31 1250.41 4194 1250.41C4187.84 1250.41 4181.28 1249.17 4174.31 1246.68C4165.28 1269.06 4156.05 1299.62 4146.61 1338.34H4096.92V1299.47C4096.92 1292.38 4096.2 1284.57 4094.77 1276.06C4093.33 1267.54 4091.19 1258.13 4088.34 1247.83C4082.62 1226.18 4079.76 1209.68 4079.76 1198.32C4079.76 1177.39 4089.63 1159.46 4109.38 1144.55C4131.18 1128.94 4158.53 1121.13 4191.44 1121.13C4223.94 1121.13 4249.65 1128.58 4268.58 1143.48C4286.67 1158.04 4295.73 1175.79 4295.73 1196.73V1338.34H4246.69Z" fill="#1D70B8"/>
<path d="M4420.85 1299.46C4420.85 1290.59 4415.71 1286.15 4405.46 1286.15C4395.2 1286.15 4390.07 1290.59 4390.07 1299.46C4390.07 1308.34 4395.2 1312.77 4405.46 1312.77C4415.71 1312.77 4420.85 1308.34 4420.85 1299.46ZM4455.53 1299.44C4455.53 1305.12 4454.19 1310.55 4451.52 1315.7C4448.85 1320.85 4445.15 1325.29 4440.42 1329.02C4435.69 1332.76 4430.24 1335.68 4424.08 1337.82C4417.91 1339.95 4411.33 1341.01 4404.34 1341.01C4388.3 1341.01 4375.34 1336.93 4365.48 1328.76C4355.61 1320.59 4350.68 1310.1 4350.68 1297.3V1125.14H4399.71V1259.46C4400.54 1259.11 4402.4 1258.92 4405.3 1258.92C4419.35 1258.92 4431.24 1262.93 4440.96 1270.92C4450.67 1278.92 4455.53 1288.43 4455.53 1299.44Z" fill="#1D70B8"/>
<path d="M4514.37 1180.17C4514.37 1171.3 4509.23 1166.86 4498.98 1166.86C4488.72 1166.86 4483.59 1171.3 4483.59 1180.17C4483.59 1189.05 4488.72 1193.48 4498.98 1193.48C4509.23 1193.48 4514.37 1189.05 4514.37 1180.17ZM4656.08 1325.81C4646.25 1334.16 4628.85 1338.34 4603.88 1338.34H4501.86V1304.44C4522.37 1304.44 4533.45 1301.25 4535.1 1294.87C4535.5 1293.81 4535.71 1291.5 4535.71 1287.96V1222.56C4535.71 1216.54 4541.22 1209.1 4552.24 1200.23C4563.73 1191.37 4569.48 1183.39 4569.48 1176.31C4569.48 1170.28 4566.29 1165.32 4559.93 1161.41C4553.57 1157.51 4547.52 1156.1 4541.78 1157.16C4547.12 1163.21 4549.8 1170.69 4549.8 1179.58C4549.8 1190.61 4544.86 1200.13 4534.99 1208.13C4525.11 1216.14 4513.18 1220.14 4499.2 1220.14C4485.21 1220.14 4473.28 1216.14 4463.41 1208.13C4453.53 1200.13 4448.6 1190.61 4448.6 1179.58C4448.6 1162.14 4461.33 1148.09 4486.79 1137.41C4509.79 1127.45 4530.53 1122.46 4549.02 1122.46C4562.56 1122.46 4576.32 1128.15 4590.29 1139.51C4604.25 1150.52 4611.22 1162.95 4611.22 1176.79C4611.22 1184.61 4606.71 1192.59 4597.68 1200.75C4589.05 1208.57 4584.75 1216.56 4584.75 1224.72V1303.55H4586.6C4599.36 1303.55 4608.41 1302.04 4613.76 1299.02C4619.1 1296.01 4621.79 1289.35 4621.79 1279.05V1125.14H4670.82V1284.51C4670.82 1303.69 4665.91 1317.46 4656.08 1325.81Z" fill="#1D70B8"/>
<path d="M4834.37 1224.9C4834.37 1216.74 4829.65 1212.66 4820.22 1212.66C4811.18 1212.66 4806.67 1216.74 4806.67 1224.9C4806.67 1232.72 4811.18 1236.62 4820.22 1236.62C4829.65 1236.62 4834.37 1232.72 4834.37 1224.9ZM4876.27 1338.34V1186.57C4876.27 1173.79 4870.52 1164.56 4859.04 1158.88L4823.35 1180.72L4783.96 1158.88C4769.19 1166.7 4761.81 1178.95 4761.81 1195.63C4761.81 1203.8 4763.65 1217.82 4767.35 1237.7C4771.45 1256.51 4773.5 1270.36 4773.5 1279.24C4776.47 1276.05 4779.8 1272.58 4783.5 1268.86C4787.19 1265.13 4791.7 1260.95 4797.04 1256.34C4783.09 1248.53 4776.11 1238.06 4776.11 1224.92C4776.11 1214.98 4780.42 1206.37 4789.04 1199.1C4797.66 1191.82 4808.13 1188.18 4820.45 1188.18C4832.77 1188.18 4843.23 1191.82 4851.86 1199.1C4860.48 1206.37 4864.79 1214.98 4864.79 1224.92C4864.79 1235.57 4859.87 1246.22 4850.02 1256.87C4845.51 1261.13 4840.06 1266.46 4833.71 1272.85C4827.35 1279.24 4820.06 1286.87 4811.85 1295.74C4804.88 1303.55 4798.41 1310.92 4792.46 1317.84C4786.51 1324.76 4780.87 1331.59 4775.54 1338.34H4727.52V1299.99C4727.52 1292.89 4726.9 1284.72 4725.68 1275.49C4724.44 1266.26 4722.39 1256.14 4719.52 1245.13C4714.6 1223.12 4712.14 1206.08 4712.14 1194C4712.14 1184.42 4714.18 1175.37 4718.29 1166.84C4722.39 1158.33 4728.03 1150.87 4735.22 1144.48C4742.4 1138.09 4751.02 1132.94 4761.07 1129.03C4771.12 1125.13 4781.9 1122.64 4793.39 1121.57L4823.55 1138.61L4854.33 1121.13C4901.64 1129.29 4925.3 1149.87 4925.3 1182.88V1338.34H4876.27Z" fill="#1D70B8"/>
<path d="M5050.95 1299.46C5050.95 1290.59 5045.81 1286.15 5035.56 1286.15C5025.3 1286.15 5020.17 1290.59 5020.17 1299.46C5020.17 1308.34 5025.3 1312.77 5035.56 1312.77C5045.81 1312.77 5050.95 1308.34 5050.95 1299.46ZM5085.63 1299.44C5085.63 1305.12 5084.3 1310.55 5081.62 1315.7C5078.95 1320.85 5075.25 1325.29 5070.52 1329.02C5065.79 1332.76 5060.34 1335.68 5054.18 1337.82C5048.01 1339.95 5041.43 1341.01 5034.44 1341.01C5018.4 1341.01 5005.44 1336.93 4995.58 1328.76C4985.71 1320.59 4980.78 1310.1 4980.78 1297.3V1125.14H5029.81V1259.46C5030.64 1259.11 5032.5 1258.92 5035.4 1258.92C5049.45 1258.92 5061.34 1262.93 5071.06 1270.92C5080.77 1278.92 5085.63 1288.43 5085.63 1299.44Z" fill="#1D70B8"/>
<path d="M5141.93 1274.96C5128.01 1275.32 5121.06 1281.36 5121.06 1293.07C5121.06 1301.24 5125.15 1305.32 5133.34 1305.32C5139.06 1305.32 5141.93 1302.3 5141.93 1296.27V1274.96ZM5150.8 1164.19C5150.8 1155.32 5145.66 1150.88 5135.41 1150.88C5125.14 1150.88 5120.02 1155.32 5120.02 1164.19C5120.02 1173.07 5125.14 1177.51 5135.41 1177.51C5145.66 1177.51 5150.8 1173.07 5150.8 1164.19ZM5270.71 1338.34H5253.45C5248.51 1326.99 5240.18 1315.83 5228.46 1304.84C5216.74 1293.85 5203.9 1285.87 5189.92 1280.91V1300.64C5189.92 1312.03 5185.42 1321.45 5176.43 1328.92C5167.44 1336.39 5155.59 1340.12 5140.88 1340.12C5125.28 1340.12 5111.72 1335.77 5100.23 1327.05C5088.73 1318.34 5082.98 1306.69 5082.98 1292.11C5082.98 1279.31 5088.52 1268.19 5099.61 1258.77C5110.69 1249.35 5124.45 1243.75 5140.88 1241.96V1204.09C5140.06 1204.45 5138.22 1204.62 5135.36 1204.62C5121.43 1204.62 5109.65 1200.62 5100.02 1192.62C5090.4 1184.62 5085.59 1175.1 5085.59 1164.08C5085.59 1158.39 5086.92 1152.96 5089.58 1147.8C5092.23 1142.65 5095.92 1138.21 5100.63 1134.47C5105.33 1130.74 5110.75 1127.8 5116.89 1125.67C5123.02 1123.54 5129.56 1122.46 5136.52 1122.46C5152.48 1122.46 5165.37 1126.55 5175.19 1134.74C5185 1142.92 5189.92 1153.41 5189.92 1166.21V1243.57C5218.82 1249.97 5241.95 1261.35 5259.3 1277.71V1125.14H5308.33V1303.69C5308.33 1326.79 5295.79 1338.34 5270.71 1338.34Z" fill="#1D70B8"/>
<path d="M5251.49 1063.46C5243.29 1050.17 5227.9 1043.52 5205.32 1043.52C5184.81 1043.52 5171.27 1049.28 5164.7 1060.8C5195.48 1056.19 5224.41 1057.07 5251.49 1063.46ZM5195.48 1080.98C5169.62 1080.98 5142.34 1084.18 5113.61 1090.57C5113.61 1068.61 5122.24 1050.54 5139.46 1036.37C5156.29 1021.86 5177.63 1014.6 5203.48 1014.6C5209.64 1014.6 5213.74 1014.78 5215.79 1015.13V1000.25H5252.72V1023.09C5261.75 1026.99 5267.91 1030.53 5271.19 1033.71V1000.25H5308.12V1104.18C5273.24 1088.72 5235.69 1080.98 5195.48 1080.98Z" fill="#1D70B8"/>
<path d="M5433.69 1234.49C5433.69 1225.61 5428.56 1221.17 5418.3 1221.17C5408.04 1221.17 5402.92 1225.61 5402.92 1234.49C5402.92 1243.37 5408.04 1247.8 5418.3 1247.8C5428.56 1247.8 5433.69 1243.37 5433.69 1234.49ZM5538.43 1325.83C5528.8 1334.17 5511.28 1338.34 5485.87 1338.34H5363.52V1236.61C5363.52 1223.47 5368.35 1212.91 5378.01 1204.92C5387.68 1196.94 5400.73 1192.94 5417.18 1192.94C5424.17 1192.94 5430.75 1194 5436.92 1196.13C5443.08 1198.26 5448.54 1201.18 5453.26 1204.9C5457.99 1208.62 5461.69 1213.06 5464.36 1218.2C5467.04 1223.34 5468.37 1228.74 5468.37 1234.42C5468.37 1245.41 5463.55 1254.81 5453.91 1262.6C5444.27 1270.4 5432.47 1274.3 5418.52 1274.3C5415.65 1274.3 5413.8 1274.13 5412.98 1273.77V1303.55H5468.99C5482.03 1303.55 5490.59 1302.31 5494.67 1299.82C5500.78 1296.63 5503.85 1289.71 5503.85 1279.06V1193.88C5503.85 1182.18 5499.13 1172.77 5489.69 1165.67C5480.25 1158.58 5467.53 1155.02 5451.52 1155.02C5420.74 1155.02 5401.04 1166.62 5392.43 1189.81H5341.34C5348.72 1168.16 5362.47 1151.3 5382.58 1139.23C5402.69 1127.16 5426.89 1121.13 5455.21 1121.13C5482.3 1121.13 5505.45 1127.34 5524.69 1139.76C5543.48 1151.83 5552.88 1167.44 5552.88 1186.61V1284.04C5552.88 1303.56 5548.06 1317.49 5538.43 1325.83Z" fill="#1D70B8"/>
<path d="M5722.3 1164.19C5722.3 1155.32 5717.17 1150.88 5706.91 1150.88C5696.65 1150.88 5691.53 1155.32 5691.53 1164.19C5691.53 1173.07 5696.65 1177.5 5706.91 1177.5C5717.17 1177.5 5722.3 1173.07 5722.3 1164.19ZM5749.22 1326.88C5740.85 1334.52 5725.61 1338.34 5703.52 1338.34H5665.97C5644.63 1294.99 5613.24 1254.3 5571.8 1216.28L5617.35 1198.16C5635.81 1215.56 5651.81 1232.61 5665.36 1249.29C5678.9 1265.98 5690.18 1282.67 5699.21 1299.35C5708.24 1299.35 5712.76 1294.38 5712.76 1284.44V1204.02C5711.93 1204.37 5710.07 1204.55 5707.17 1204.55C5693.11 1204.55 5681.23 1200.55 5671.51 1192.56C5661.8 1184.56 5656.94 1175.06 5656.94 1164.04C5656.94 1158.35 5658.28 1152.94 5660.95 1147.78C5663.63 1142.63 5667.33 1138.19 5672.05 1134.46C5676.78 1130.73 5682.23 1127.8 5688.39 1125.66C5694.56 1123.53 5701.14 1122.46 5708.14 1122.46C5724.17 1122.46 5737.12 1126.56 5746.99 1134.72C5756.85 1142.9 5761.79 1153.38 5761.79 1166.17V1288.24C5761.79 1306.36 5757.6 1319.24 5749.22 1326.88Z" fill="#1D70B8"/>
<path d="M8.80273 1557.73H45.3694V1702.49H8.80273V1557.73Z" fill="#1D70B8"/>
<path d="M154.709 1702.49V1643.17C154.709 1625.96 147.609 1617.36 133.407 1617.36C116.129 1617.36 107.491 1627.4 107.491 1647.48V1702.49H74.4766V1597.68H106.071V1612.13H106.782C115.065 1600.66 127.373 1594.92 143.703 1594.92C160.505 1594.92 172.337 1598.81 179.205 1606.6C185.117 1613.16 188.079 1623.61 188.079 1637.95V1702.49H154.709Z" fill="#1D70B8"/>
<path d="M319.429 1668.68C319.429 1681.39 313.627 1690.92 302.034 1697.26C292.326 1702.59 279.785 1705.26 264.403 1705.26C227.482 1705.26 208.429 1692.96 207.246 1668.37H238.842C239.075 1680.26 247.595 1686.2 264.403 1686.2C279.074 1686.2 286.413 1681.7 286.413 1672.68C286.413 1668.79 283.097 1665.61 276.474 1663.15C274.105 1662.13 270.554 1661.1 265.822 1660.08C261.086 1659.05 255.289 1657.82 248.427 1656.39C222.867 1651.47 210.086 1642.15 210.086 1628.42C210.086 1606.09 227.715 1594.92 262.983 1594.92C296.354 1594.92 314.103 1605.98 316.234 1628.11H284.638C283.69 1618.69 276.118 1613.97 261.918 1613.97C249.609 1613.97 243.457 1617.25 243.457 1623.81C243.457 1628.32 247.362 1631.8 255.173 1634.26C255.645 1634.47 258.013 1634.98 262.273 1635.8C266.533 1636.62 272.801 1637.85 281.089 1639.49C292.921 1641.94 301.795 1644.92 307.714 1648.4C315.525 1652.91 319.429 1659.67 319.429 1668.68Z" fill="#1D70B8"/>
<path d="M385.811 1703.72C360.483 1703.72 347.826 1695.42 347.826 1678.82V1616.74H327.59V1597.69H347.826V1566.03H380.841V1597.69H405.337V1616.74H380.841V1668.68C380.841 1674.21 381.962 1677.65 384.214 1678.98C386.461 1680.31 390.071 1680.97 395.042 1680.97C398.354 1680.97 401.786 1680.67 405.337 1680.05V1702.8C399.657 1703.41 393.145 1703.72 385.811 1703.72Z" fill="#1D70B8"/>
<path d="M422.02 1597.68H455.39V1702.49H422.02V1597.68ZM422.02 1557.73H455.39V1581.4H422.02V1557.73Z" fill="#1D70B8"/>
<path d="M528.522 1703.72C503.194 1703.72 490.537 1695.42 490.537 1678.82V1616.74H470.301V1597.69H490.537V1566.03H523.551V1597.69H548.049V1616.74H523.551V1668.68C523.551 1674.21 524.673 1677.65 526.925 1678.98C529.171 1680.31 532.782 1680.97 537.753 1680.97C541.065 1680.97 544.498 1680.67 548.049 1680.05V1702.8C542.367 1703.41 535.855 1703.72 528.522 1703.72Z" fill="#1D70B8"/>
<path d="M646.028 1702.49V1687.74H645.319C637.269 1699.41 624.844 1705.25 608.043 1705.25C591.473 1705.25 579.759 1701.26 572.896 1693.27C566.977 1686.92 564.021 1676.57 564.021 1662.23V1597.68H597.037V1657C597.037 1674.01 604.137 1682.51 618.337 1682.51C635.611 1682.51 644.253 1672.58 644.253 1652.7V1597.68H677.624V1702.49H646.028Z" fill="#1D70B8"/>
<path d="M749.686 1703.72C724.358 1703.72 711.701 1695.42 711.701 1678.82V1616.74H691.465V1597.69H711.701V1566.03H744.716V1597.69H769.212V1616.74H744.716V1668.68C744.716 1674.21 745.837 1677.65 748.089 1678.98C750.336 1680.31 753.946 1680.97 758.917 1680.97C762.229 1680.97 765.661 1680.67 769.212 1680.05V1702.8C763.532 1703.41 757.02 1703.72 749.686 1703.72Z" fill="#1D70B8"/>
<path d="M840.214 1616.43C830.744 1616.43 823.528 1619.1 818.558 1624.42C815.008 1628.11 812.995 1632.93 812.523 1638.87H866.484C863.644 1623.91 854.886 1616.43 840.214 1616.43ZM812.523 1657C813.234 1674.83 823.174 1683.74 842.344 1683.74C848.734 1683.74 854.414 1682.31 859.384 1679.44C864.354 1676.57 867.427 1673.4 868.614 1669.91H897.724C888.966 1693.47 870.034 1705.25 840.924 1705.25C822.224 1705.25 807.198 1700.24 795.838 1690.19C784.71 1679.95 779.152 1666.63 779.152 1650.24C779.152 1634.26 784.832 1621.04 796.192 1610.59C808.024 1600.14 822.935 1594.92 840.924 1594.92C860.566 1594.92 875.947 1601.27 887.075 1613.97C897.015 1625.45 901.275 1639.79 899.855 1657H812.523Z" fill="#1D70B8"/>
<path d="M1069.01 1579.4C1067 1579.3 1065.17 1579.25 1063.51 1579.25C1055.23 1579.25 1051.09 1583.24 1051.09 1591.23V1597.69H1073.81V1616.74H1051.09V1702.49H1017.72V1616.74H997.836V1597.69H1017.72V1589.39C1017.72 1579.55 1021.21 1571.82 1028.19 1566.18C1035.17 1560.55 1045.17 1557.73 1058.19 1557.73C1060.32 1557.73 1063.33 1557.84 1067.24 1558.04C1071.15 1558.25 1074.04 1558.35 1075.94 1558.35V1579.86C1073.33 1579.66 1071.02 1579.5 1069.01 1579.4Z" fill="#1D70B8"/>
<path d="M1176.76 1650.24C1176.76 1627.71 1166.93 1616.43 1147.29 1616.43C1127.88 1616.43 1118.18 1627.71 1118.18 1650.24C1118.18 1672.58 1127.88 1683.74 1147.29 1683.74C1166.93 1683.74 1176.76 1672.58 1176.76 1650.24ZM1210.13 1650.24C1210.13 1658.44 1208.64 1665.97 1205.69 1672.83C1202.73 1679.7 1198.53 1685.49 1193.09 1690.2C1187.64 1694.91 1181.07 1698.6 1173.38 1701.26C1165.69 1703.92 1156.99 1705.26 1147.29 1705.26C1137.82 1705.26 1129.24 1703.92 1121.55 1701.26C1113.86 1698.6 1107.29 1694.91 1101.85 1690.2C1096.4 1685.49 1092.2 1679.7 1089.25 1672.83C1086.28 1665.97 1084.81 1658.44 1084.81 1650.24C1084.81 1641.84 1086.28 1634.26 1089.25 1627.5C1092.2 1620.74 1096.4 1614.95 1101.85 1610.13C1107.29 1605.32 1113.86 1601.58 1121.55 1598.91C1129.24 1596.25 1137.82 1594.92 1147.29 1594.92C1156.99 1594.92 1165.69 1596.25 1173.38 1598.91C1181.07 1601.58 1187.64 1605.32 1193.09 1610.13C1198.53 1614.95 1202.73 1620.74 1205.69 1627.5C1208.64 1634.26 1210.13 1641.84 1210.13 1650.24Z" fill="#1D70B8"/>
<path d="M1297.81 1621.66C1275.8 1621.66 1264.8 1632.83 1264.8 1655.16V1702.49H1231.78V1597.69H1263.38V1617.05H1263.73C1266.81 1610.49 1271.95 1605.17 1279.17 1601.07C1286.39 1596.97 1294.14 1594.92 1302.43 1594.92C1305.03 1594.92 1307.4 1595.23 1309.53 1595.84V1622.58C1306.69 1621.96 1302.78 1621.66 1297.81 1621.66Z" fill="#1D70B8"/>
<path d="M1487.74 1705.87C1440.4 1705.87 1416.73 1686.51 1416.73 1647.78V1557.73H1453.3V1647.78C1453.3 1668.68 1464.78 1679.13 1487.74 1679.13C1500.52 1679.13 1509.51 1676.67 1514.72 1671.76C1519.92 1666.84 1522.53 1658.85 1522.53 1647.78V1557.73H1559.09V1647.78C1559.09 1686.51 1535.31 1705.87 1487.74 1705.87Z" fill="#1D70B8"/>
<path d="M1653.52 1621.66C1631.51 1621.66 1620.51 1632.83 1620.51 1655.16V1702.49H1587.49V1597.69H1619.09V1617.05H1619.44C1622.52 1610.49 1627.66 1605.17 1634.89 1601.07C1642.1 1596.97 1649.85 1594.92 1658.14 1594.92C1660.74 1594.92 1663.11 1595.23 1665.24 1595.84V1622.58C1662.4 1621.96 1658.49 1621.66 1653.52 1621.66Z" fill="#1D70B8"/>
<path d="M1767.48 1650.24C1767.48 1640.41 1765.23 1632.52 1760.73 1626.58C1755.53 1619.81 1748.31 1616.43 1739.08 1616.43C1729.61 1616.43 1722.51 1619.61 1717.78 1625.96C1713.04 1632.31 1710.68 1640.41 1710.68 1650.24C1710.68 1659.87 1712.92 1667.56 1717.42 1673.29C1722.63 1680.26 1729.85 1683.74 1739.08 1683.74C1748.31 1683.74 1755.53 1680.26 1760.73 1673.29C1765.23 1667.56 1767.48 1659.87 1767.48 1650.24ZM1800.49 1649.93C1800.49 1667.76 1795.17 1681.8 1784.52 1692.04C1775.29 1700.85 1763.93 1705.26 1750.44 1705.26C1730.79 1705.26 1717.54 1699.83 1710.68 1688.97H1710.32V1702.49H1678.73V1557.73H1711.74V1610.29H1712.45C1720.26 1600.04 1732.92 1594.92 1750.44 1594.92C1763.93 1594.92 1775.29 1599.33 1784.52 1608.13C1795.17 1618.18 1800.49 1632.11 1800.49 1649.93Z" fill="#1D70B8"/>
<path d="M1897.06 1651.16C1894.45 1653.21 1888.65 1654.85 1879.66 1656.08C1869.48 1657.31 1862.74 1658.54 1859.43 1659.77C1853.04 1662.23 1849.84 1666.53 1849.84 1672.68C1849.84 1681.69 1856.58 1686.2 1870.08 1686.2C1888.06 1686.2 1897.06 1678.11 1897.06 1661.92V1651.16ZM1900.96 1702.49C1900.48 1700.85 1900.01 1699.21 1899.54 1697.57C1899.06 1695.93 1898.71 1694.19 1898.48 1692.35C1889.01 1700.95 1875.4 1705.25 1857.65 1705.25C1845.58 1705.25 1835.87 1702.69 1828.54 1697.57C1820.49 1692.04 1816.47 1684.15 1816.47 1673.91C1816.47 1656.08 1830.19 1645.43 1857.65 1641.94L1884.99 1638.56C1893.03 1636.72 1897.06 1633.24 1897.06 1628.11C1897.06 1618.69 1889.83 1613.97 1875.4 1613.97C1862.14 1613.97 1854.81 1619.3 1853.39 1629.96H1820.37C1821.8 1606.6 1840.73 1594.92 1877.18 1594.92C1912.68 1594.92 1930.43 1604.86 1930.43 1624.73V1679.13C1930.43 1690.61 1931.85 1698.39 1934.69 1702.49H1900.96Z" fill="#1D70B8"/>
<path d="M2036.57 1702.49V1643.17C2036.57 1625.96 2029.47 1617.36 2015.27 1617.36C1997.99 1617.36 1989.36 1627.4 1989.36 1647.48V1702.49H1956.34V1597.68H1987.94V1612.13H1988.65C1996.93 1600.66 2009.24 1594.92 2025.57 1594.92C2042.37 1594.92 2054.2 1598.81 2061.07 1606.6C2066.98 1613.16 2069.94 1623.61 2069.94 1637.95V1702.49H2036.57Z" fill="#1D70B8"/>
<path d="M2300.7 1632.42C2300.7 1600.45 2284.6 1584.47 2252.41 1584.47H2226.14V1675.75H2259.16C2270.75 1675.75 2280.34 1672.48 2287.92 1665.92C2296.44 1658.54 2300.7 1647.37 2300.7 1632.42ZM2337.62 1629.34C2337.62 1651.06 2331.34 1668.48 2318.8 1681.59C2305.31 1695.53 2286.26 1702.49 2261.64 1702.49H2189.58V1557.73H2261.64C2284.36 1557.73 2302.47 1563.68 2315.96 1575.56C2330.39 1588.06 2337.62 1605.98 2337.62 1629.34Z" fill="#1D70B8"/>
<path d="M2360.34 1597.68H2393.71V1702.49H2360.34V1597.68ZM2360.34 1557.73H2393.71V1581.4H2360.34V1557.73Z" fill="#1D70B8"/>
<path d="M2526.13 1668.68C2526.13 1681.39 2520.32 1690.92 2508.73 1697.26C2499.02 1702.59 2486.48 1705.26 2471.1 1705.26C2434.18 1705.26 2415.12 1692.96 2413.94 1668.37H2445.54C2445.77 1680.26 2454.29 1686.2 2471.1 1686.2C2485.77 1686.2 2493.11 1681.7 2493.11 1672.68C2493.11 1668.79 2489.79 1665.61 2483.17 1663.15C2480.8 1662.13 2477.25 1661.1 2472.52 1660.08C2467.78 1659.05 2461.99 1657.82 2455.12 1656.39C2429.56 1651.47 2416.78 1642.15 2416.78 1628.42C2416.78 1606.09 2434.41 1594.92 2469.68 1594.92C2503.05 1594.92 2520.8 1605.98 2522.93 1628.11H2491.33C2490.39 1618.69 2482.81 1613.97 2468.61 1613.97C2456.31 1613.97 2450.15 1617.25 2450.15 1623.81C2450.15 1628.32 2454.06 1631.8 2461.87 1634.26C2462.34 1634.47 2464.71 1634.98 2468.97 1635.8C2473.23 1636.62 2479.5 1637.85 2487.78 1639.49C2499.62 1641.94 2508.49 1644.92 2514.41 1648.4C2522.22 1652.91 2526.13 1659.67 2526.13 1668.68Z" fill="#1D70B8"/>
<path d="M2600.67 1616.43C2591.2 1616.43 2583.99 1619.1 2579.02 1624.42C2575.47 1628.11 2573.45 1632.93 2572.98 1638.87H2626.94C2624.1 1623.91 2615.34 1616.43 2600.67 1616.43ZM2572.98 1657C2573.69 1674.83 2583.63 1683.74 2602.8 1683.74C2609.19 1683.74 2614.87 1682.31 2619.84 1679.44C2624.81 1676.57 2627.89 1673.4 2629.07 1669.91H2658.18C2649.42 1693.47 2630.49 1705.25 2601.38 1705.25C2582.68 1705.25 2567.66 1700.24 2556.3 1690.19C2545.17 1679.95 2539.61 1666.63 2539.61 1650.24C2539.61 1634.26 2545.29 1621.04 2556.65 1610.59C2568.48 1600.14 2583.39 1594.92 2601.38 1594.92C2621.02 1594.92 2636.41 1601.27 2647.53 1613.97C2657.47 1625.45 2661.73 1639.79 2660.31 1657H2572.98Z" fill="#1D70B8"/>
<path d="M2755.46 1651.16C2752.85 1653.21 2747.05 1654.85 2738.06 1656.08C2727.88 1657.31 2721.14 1658.54 2717.82 1659.77C2711.43 1662.23 2708.24 1666.53 2708.24 1672.68C2708.24 1681.69 2714.98 1686.2 2728.47 1686.2C2746.46 1686.2 2755.46 1678.11 2755.46 1661.92V1651.16ZM2759.36 1702.49C2758.88 1700.85 2758.41 1699.21 2757.94 1697.57C2757.46 1695.93 2757.11 1694.19 2756.87 1692.35C2747.41 1700.95 2733.8 1705.25 2716.05 1705.25C2703.98 1705.25 2694.27 1702.69 2686.94 1697.57C2678.89 1692.04 2674.87 1684.15 2674.87 1673.91C2674.87 1656.08 2688.59 1645.43 2716.05 1641.94L2743.39 1638.56C2751.43 1636.72 2755.46 1633.24 2755.46 1628.11C2755.46 1618.69 2748.23 1613.97 2733.8 1613.97C2720.54 1613.97 2713.21 1619.3 2711.79 1629.96H2678.77C2680.19 1606.6 2699.13 1594.92 2735.57 1594.92C2771.08 1594.92 2788.83 1604.86 2788.83 1624.73V1679.13C2788.83 1690.61 2790.25 1698.39 2793.09 1702.49H2759.36Z" fill="#1D70B8"/>
<path d="M2920.89 1668.68C2920.89 1681.39 2915.09 1690.92 2903.49 1697.26C2893.79 1702.59 2881.24 1705.26 2865.86 1705.26C2828.94 1705.26 2809.89 1692.96 2808.71 1668.37H2840.3C2840.53 1680.26 2849.06 1686.2 2865.86 1686.2C2880.53 1686.2 2887.87 1681.7 2887.87 1672.68C2887.87 1668.79 2884.56 1665.61 2877.93 1663.15C2875.56 1662.13 2872.01 1661.1 2867.28 1660.08C2862.54 1659.05 2856.75 1657.82 2849.89 1656.39C2824.33 1651.47 2811.55 1642.15 2811.55 1628.42C2811.55 1606.09 2829.17 1594.92 2864.44 1594.92C2897.81 1594.92 2915.56 1605.98 2917.69 1628.11H2886.1C2885.15 1618.69 2877.58 1613.97 2863.38 1613.97C2851.07 1613.97 2844.92 1617.25 2844.92 1623.81C2844.92 1628.32 2848.82 1631.8 2856.63 1634.26C2857.1 1634.47 2859.47 1634.98 2863.73 1635.8C2867.99 1636.62 2874.26 1637.85 2882.55 1639.49C2894.38 1641.94 2903.25 1644.92 2909.17 1648.4C2916.98 1652.91 2920.89 1659.67 2920.89 1668.68Z" fill="#1D70B8"/>
<path d="M2995.44 1616.43C2985.97 1616.43 2978.75 1619.1 2973.78 1624.42C2970.23 1628.11 2968.22 1632.93 2967.75 1638.87H3021.71C3018.87 1623.91 3010.11 1616.43 2995.44 1616.43ZM2967.75 1657C2968.46 1674.83 2978.39 1683.74 2997.57 1683.74C3003.96 1683.74 3009.64 1682.31 3014.61 1679.44C3019.58 1676.57 3022.65 1673.4 3023.84 1669.91H3052.95C3044.19 1693.47 3025.26 1705.25 2996.15 1705.25C2977.45 1705.25 2962.42 1700.24 2951.06 1690.19C2939.93 1679.95 2934.38 1666.63 2934.38 1650.24C2934.38 1634.26 2940.06 1621.04 2951.42 1610.59C2963.25 1600.14 2978.16 1594.92 2996.15 1594.92C3015.79 1594.92 3031.17 1601.27 3042.3 1613.97C3052.24 1625.45 3056.5 1639.79 3055.08 1657H2967.75Z" fill="#1D70B8"/>
<path d="M3310.5 1671.29C3306.6 1678.57 3301.45 1684.77 3295.06 1689.89C3288.67 1695.01 3281.16 1698.95 3272.52 1701.72C3263.88 1704.49 3254.47 1705.87 3244.3 1705.87C3219.21 1705.87 3198.97 1698.49 3183.59 1683.74C3169.15 1670.02 3161.93 1652.29 3161.93 1630.57C3161.93 1608.65 3169.27 1590.41 3183.94 1575.86C3198.85 1561.52 3218.97 1554.35 3244.3 1554.35C3262.99 1554.35 3278.96 1558.86 3292.22 1567.87C3306.18 1577.51 3314.23 1590.31 3316.36 1606.29H3280.86C3280.15 1602.6 3278.73 1599.22 3276.6 1596.15C3274.47 1593.08 3271.75 1590.41 3268.44 1588.16C3265.12 1585.9 3261.39 1584.16 3257.25 1582.93C3253.11 1581.7 3248.79 1581.09 3244.3 1581.09C3229.15 1581.09 3217.43 1586.21 3209.15 1596.46C3202.28 1605.47 3198.85 1616.85 3198.85 1630.57C3198.85 1643.89 3202.28 1655.06 3209.15 1664.07C3217.19 1674.11 3228.91 1679.13 3244.3 1679.13C3266.54 1679.13 3279.2 1668.37 3282.28 1646.86H3317.78C3316.83 1655.88 3314.41 1664.02 3310.5 1671.29Z" fill="#1D70B8"/>
<path d="M3427.48 1650.24C3427.48 1627.71 3417.66 1616.43 3398.01 1616.43C3378.6 1616.43 3368.9 1627.71 3368.9 1650.24C3368.9 1672.58 3378.6 1683.74 3398.01 1683.74C3417.66 1683.74 3427.48 1672.58 3427.48 1650.24ZM3460.85 1650.24C3460.85 1658.44 3459.37 1665.97 3456.41 1672.83C3453.45 1679.7 3449.25 1685.49 3443.81 1690.2C3438.36 1694.91 3431.79 1698.6 3424.11 1701.26C3416.41 1703.92 3407.72 1705.26 3398.01 1705.26C3388.54 1705.26 3379.96 1703.92 3372.28 1701.26C3364.58 1698.6 3358.01 1694.91 3352.57 1690.2C3347.12 1685.49 3342.93 1679.7 3339.97 1672.83C3337.01 1665.97 3335.53 1658.44 3335.53 1650.24C3335.53 1641.84 3337.01 1634.26 3339.97 1627.5C3342.93 1620.74 3347.12 1614.95 3352.57 1610.13C3358.01 1605.32 3364.58 1601.58 3372.28 1598.91C3379.96 1596.25 3388.54 1594.92 3398.01 1594.92C3407.72 1594.92 3416.41 1596.25 3424.11 1598.91C3431.79 1601.58 3438.36 1605.32 3443.81 1610.13C3449.25 1614.95 3453.45 1620.74 3456.41 1627.5C3459.37 1634.26 3460.85 1641.84 3460.85 1650.24Z" fill="#1D70B8"/>
<path d="M3562.74 1702.49V1643.17C3562.74 1625.96 3555.64 1617.36 3541.44 1617.36C3524.16 1617.36 3515.52 1627.4 3515.52 1647.48V1702.49H3482.51V1597.68H3514.1V1612.13H3514.81C3523.09 1600.66 3535.4 1594.92 3551.73 1594.92C3568.53 1594.92 3580.37 1598.81 3587.23 1606.6C3593.15 1613.16 3596.11 1623.61 3596.11 1637.95V1702.49H3562.74Z" fill="#1D70B8"/>
<path d="M3668.17 1703.72C3642.84 1703.72 3630.19 1695.42 3630.19 1678.82V1616.74H3609.95V1597.69H3630.19V1566.03H3663.2V1597.69H3687.7V1616.74H3663.2V1668.68C3663.2 1674.21 3664.32 1677.65 3666.57 1678.98C3668.82 1680.31 3672.43 1680.97 3677.4 1680.97C3680.71 1680.97 3684.15 1680.67 3687.7 1680.05V1702.8C3682.02 1703.41 3675.5 1703.72 3668.17 1703.72Z" fill="#1D70B8"/>
<path d="M3769.7 1621.66C3747.69 1621.66 3736.69 1632.83 3736.69 1655.16V1702.49H3703.67V1597.69H3735.27V1617.05H3735.62C3738.69 1610.49 3743.84 1605.17 3751.06 1601.07C3758.28 1596.97 3766.03 1594.92 3774.32 1594.92C3776.92 1594.92 3779.29 1595.23 3781.42 1595.84V1622.58C3778.58 1621.96 3774.67 1621.66 3769.7 1621.66Z" fill="#1D70B8"/>
<path d="M3882.95 1650.24C3882.95 1627.71 3873.12 1616.43 3853.48 1616.43C3834.07 1616.43 3824.37 1627.71 3824.37 1650.24C3824.37 1672.58 3834.07 1683.74 3853.48 1683.74C3873.12 1683.74 3882.95 1672.58 3882.95 1650.24ZM3916.32 1650.24C3916.32 1658.44 3914.84 1665.97 3911.88 1672.83C3908.92 1679.7 3904.72 1685.49 3899.28 1690.2C3893.83 1694.91 3887.26 1698.6 3879.57 1701.26C3871.88 1703.92 3863.18 1705.26 3853.48 1705.26C3844.01 1705.26 3835.43 1703.92 3827.74 1701.26C3820.05 1698.6 3813.48 1694.91 3808.04 1690.2C3802.59 1685.49 3798.39 1679.7 3795.44 1672.83C3792.47 1665.97 3791 1658.44 3791 1650.24C3791 1641.84 3792.47 1634.26 3795.44 1627.5C3798.39 1620.74 3802.59 1614.95 3808.04 1610.13C3813.48 1605.32 3820.05 1601.58 3827.74 1598.91C3835.43 1596.25 3844.01 1594.92 3853.48 1594.92C3863.18 1594.92 3871.88 1596.25 3879.57 1598.91C3887.26 1601.58 3893.83 1605.32 3899.28 1610.13C3904.72 1614.95 3908.92 1620.74 3911.88 1627.5C3914.84 1634.26 3916.32 1641.84 3916.32 1650.24Z" fill="#1D70B8"/>
<path d="M3938.68 1557.73H3972.05V1702.49H3938.68V1557.73Z" fill="#1D70B8"/>
<path d="M4164.47 1651.16C4161.86 1653.21 4156.06 1654.85 4147.07 1656.08C4136.89 1657.31 4130.15 1658.54 4126.83 1659.77C4120.44 1662.23 4117.25 1666.53 4117.25 1672.68C4117.25 1681.69 4123.99 1686.2 4137.49 1686.2C4155.47 1686.2 4164.47 1678.11 4164.47 1661.92V1651.16ZM4168.37 1702.49C4167.89 1700.85 4167.42 1699.21 4166.95 1697.57C4166.47 1695.93 4166.12 1694.19 4165.89 1692.35C4156.42 1700.95 4142.81 1705.25 4125.06 1705.25C4112.99 1705.25 4103.28 1702.69 4095.95 1697.57C4087.9 1692.04 4083.88 1684.15 4083.88 1673.91C4083.88 1656.08 4097.6 1645.43 4125.06 1641.94L4152.39 1638.56C4160.44 1636.72 4164.47 1633.24 4164.47 1628.11C4164.47 1618.69 4157.24 1613.97 4142.81 1613.97C4129.55 1613.97 4122.22 1619.3 4120.8 1629.96H4087.78C4089.2 1606.6 4108.14 1594.92 4144.59 1594.92C4180.09 1594.92 4197.84 1604.86 4197.84 1624.73V1679.13C4197.84 1690.61 4199.26 1698.39 4202.1 1702.49H4168.37Z" fill="#1D70B8"/>
<path d="M4303.98 1702.49V1643.17C4303.98 1625.96 4296.88 1617.36 4282.68 1617.36C4265.4 1617.36 4256.77 1627.4 4256.77 1647.48V1702.49H4223.75V1597.68H4255.35V1612.13H4256.06C4264.34 1600.66 4276.65 1594.92 4292.98 1594.92C4309.78 1594.92 4321.61 1598.81 4328.48 1606.6C4334.39 1613.16 4337.35 1623.61 4337.35 1637.95V1702.49H4303.98Z" fill="#1D70B8"/>
<path d="M4448.47 1649.63C4448.47 1627.5 4438.88 1616.43 4419.71 1616.43C4400.3 1616.43 4390.6 1627.6 4390.6 1649.93C4390.6 1659.36 4392.85 1667.04 4397.35 1672.99C4402.79 1680.16 4410.24 1683.74 4419.71 1683.74C4438.88 1683.74 4448.47 1672.37 4448.47 1649.63ZM4448.82 1702.49V1688.97H4448.47C4440.89 1699.83 4428.59 1705.26 4411.55 1705.26C4394.27 1705.26 4380.66 1699.52 4370.72 1688.04C4361.72 1677.8 4357.23 1664.79 4357.23 1649.01C4357.23 1634.26 4361.72 1621.76 4370.72 1611.52C4380.66 1600.45 4394.03 1594.92 4410.84 1594.92C4427.17 1594.92 4439.24 1600.04 4447.05 1610.29H4447.4V1557.73H4480.42V1702.49H4448.82Z" fill="#1D70B8"/>
<path d="M4697.68 1604.14C4697.68 1589.59 4686.91 1582.32 4665.38 1582.32H4636.62V1625.96H4665.38C4686.91 1625.96 4697.68 1618.69 4697.68 1604.14ZM4733.18 1604.14C4733.18 1617.25 4728.8 1627.91 4720.05 1636.1C4709.63 1645.74 4694.72 1650.55 4675.32 1650.55H4636.62V1702.49H4600.06V1557.73H4675.32C4694.72 1557.73 4709.63 1562.55 4720.05 1572.18C4728.8 1580.37 4733.18 1591.03 4733.18 1604.14Z" fill="#1D70B8"/>
<path d="M4818.74 1621.66C4796.73 1621.66 4785.72 1632.83 4785.72 1655.16V1702.49H4752.71V1597.69H4784.3V1617.05H4784.65C4787.73 1610.49 4792.88 1605.17 4800.1 1601.07C4807.32 1596.97 4815.06 1594.92 4823.35 1594.92C4825.95 1594.92 4828.32 1595.23 4830.45 1595.84V1622.58C4827.61 1621.96 4823.71 1621.66 4818.74 1621.66Z" fill="#1D70B8"/>
<path d="M4898.97 1616.43C4889.49 1616.43 4882.28 1619.1 4877.31 1624.42C4873.76 1628.11 4871.75 1632.93 4871.27 1638.87H4925.23C4922.39 1623.91 4913.64 1616.43 4898.97 1616.43ZM4871.27 1657C4871.98 1674.83 4881.92 1683.74 4901.09 1683.74C4907.49 1683.74 4913.16 1682.31 4918.13 1679.44C4923.11 1676.57 4926.18 1673.4 4927.37 1669.91H4956.48C4947.72 1693.47 4928.79 1705.25 4899.67 1705.25C4880.98 1705.25 4865.95 1700.24 4854.59 1690.19C4843.46 1679.95 4837.9 1666.63 4837.9 1650.24C4837.9 1634.26 4843.58 1621.04 4854.94 1610.59C4866.77 1600.14 4881.69 1594.92 4899.67 1594.92C4919.32 1594.92 4934.7 1601.27 4945.83 1613.97C4955.77 1625.45 4960.03 1639.79 4958.61 1657H4871.27Z" fill="#1D70B8"/>
<path d="M5045.23 1702.49H5008.31L4966.77 1597.68H5001.92L5027.48 1669.3H5027.83L5053.39 1597.68H5086.41L5045.23 1702.49Z" fill="#1D70B8"/>
<path d="M5155.28 1616.43C5145.81 1616.43 5138.59 1619.1 5133.62 1624.42C5130.07 1628.11 5128.06 1632.93 5127.58 1638.87H5181.55C5178.71 1623.91 5169.95 1616.43 5155.28 1616.43ZM5127.58 1657C5128.3 1674.83 5138.24 1683.74 5157.41 1683.74C5163.8 1683.74 5169.48 1682.31 5174.45 1679.44C5179.42 1676.57 5182.49 1673.4 5183.68 1669.91H5212.79C5204.03 1693.47 5185.1 1705.25 5155.98 1705.25C5137.29 1705.25 5122.26 1700.24 5110.9 1690.19C5099.77 1679.95 5094.21 1666.63 5094.21 1650.24C5094.21 1634.26 5099.89 1621.04 5111.25 1610.59C5123.09 1600.14 5138 1594.92 5155.98 1594.92C5175.63 1594.92 5191.01 1601.27 5202.14 1613.97C5212.08 1625.45 5216.34 1639.79 5214.92 1657H5127.58Z" fill="#1D70B8"/>
<path d="M5315.03 1702.49V1643.17C5315.03 1625.96 5307.93 1617.36 5293.73 1617.36C5276.45 1617.36 5267.81 1627.4 5267.81 1647.48V1702.49H5234.8V1597.68H5266.39V1612.13H5267.1C5275.38 1600.66 5287.69 1594.92 5304.02 1594.92C5320.82 1594.92 5332.66 1598.81 5339.52 1606.6C5345.44 1613.16 5348.4 1623.61 5348.4 1637.95V1702.49H5315.03Z" fill="#1D70B8"/>
<path d="M5420.46 1703.72C5395.14 1703.72 5382.48 1695.42 5382.48 1678.82V1616.74H5362.24V1597.69H5382.48V1566.03H5415.49V1597.69H5439.99V1616.74H5415.49V1668.68C5415.49 1674.21 5416.61 1677.65 5418.87 1678.98C5421.11 1680.31 5424.72 1680.97 5429.69 1680.97C5433 1680.97 5436.44 1680.67 5439.99 1680.05V1702.8C5434.31 1703.41 5427.8 1703.72 5420.46 1703.72Z" fill="#1D70B8"/>
<path d="M5456.67 1597.68H5490.04V1702.49H5456.67V1597.68ZM5456.67 1557.73H5490.04V1581.4H5456.67V1557.73Z" fill="#1D70B8"/>
<path d="M5604.35 1650.24C5604.35 1627.71 5594.53 1616.43 5574.89 1616.43C5555.48 1616.43 5545.78 1627.71 5545.78 1650.24C5545.78 1672.58 5555.48 1683.74 5574.89 1683.74C5594.53 1683.74 5604.35 1672.58 5604.35 1650.24ZM5637.73 1650.24C5637.73 1658.44 5636.25 1665.97 5633.29 1672.83C5630.33 1679.7 5626.13 1685.49 5620.69 1690.2C5615.24 1694.91 5608.67 1698.6 5600.98 1701.26C5593.29 1703.92 5584.59 1705.26 5574.89 1705.26C5565.42 1705.26 5556.84 1703.92 5549.15 1701.26C5541.46 1698.6 5534.89 1694.91 5529.45 1690.2C5524 1685.49 5519.8 1679.7 5516.85 1672.83C5513.88 1665.97 5512.41 1658.44 5512.41 1650.24C5512.41 1641.84 5513.88 1634.26 5516.85 1627.5C5519.8 1620.74 5524 1614.95 5529.45 1610.13C5534.89 1605.32 5541.46 1601.58 5549.15 1598.91C5556.84 1596.25 5565.42 1594.92 5574.89 1594.92C5584.59 1594.92 5593.29 1596.25 5600.98 1598.91C5608.67 1601.58 5615.24 1605.32 5620.69 1610.13C5626.13 1614.95 5630.33 1620.74 5633.29 1627.5C5636.25 1634.26 5637.73 1641.84 5637.73 1650.24Z" fill="#1D70B8"/>
<path d="M5739.61 1702.49V1643.17C5739.61 1625.96 5732.51 1617.36 5718.31 1617.36C5701.03 1617.36 5692.4 1627.4 5692.4 1647.48V1702.49H5659.38V1597.68H5690.98V1612.13H5691.69C5699.97 1600.66 5712.28 1594.92 5728.61 1594.92C5745.41 1594.92 5757.24 1598.81 5764.11 1606.6C5770.02 1613.16 5772.98 1623.61 5772.98 1637.95V1702.49H5739.61Z" fill="#1D70B8"/>
<path d="M2029.48 380.174C2029.48 589.652 1859.67 759.468 1650.19 759.468C1440.71 759.468 1270.9 589.652 1270.9 380.174C1270.9 170.697 1440.71 0.882532 1650.19 0.882532C1859.67 0.882532 2029.48 170.697 2029.48 380.174Z" fill="#006633"/>
<path d="M1773.71 279.115C1781 294.784 1784.65 310.704 1784.65 326.884V505.459C1784.65 517.992 1780.35 527.78 1771.75 534.833C1763.15 541.876 1753.14 545.403 1741.69 545.403C1730.22 545.403 1720.2 541.876 1711.61 534.833C1703.01 527.78 1698.72 517.992 1698.72 505.459V409.128C1695.12 410.171 1687.83 411.614 1676.88 413.436C1665.92 415.259 1651.07 417.224 1632.29 419.308C1606.21 422.433 1593.18 432.091 1593.18 448.261C1593.18 462.879 1598.91 468.619 1610.39 465.483C1616.12 463.92 1621.08 463.139 1625.26 463.139C1636.72 463.139 1646.11 467.056 1653.41 474.881C1660.71 482.716 1664.37 492.364 1664.37 503.846C1664.37 523.683 1653.41 536.467 1631.51 542.197C1623.68 544.331 1614.56 545.403 1604.14 545.403C1578.06 545.403 1555.38 537.848 1536.08 522.731C1514.17 504.487 1503.22 479.469 1503.22 447.671C1503.22 390.334 1539.2 355.928 1611.17 344.458C1620.04 343.416 1628.64 342.374 1636.99 341.332C1645.33 340.29 1653.67 339.238 1662.02 338.196C1683.92 334.028 1694.88 327.255 1694.88 317.867C1694.88 311.616 1690.57 306.406 1681.96 302.239C1673.36 298.071 1663.32 295.976 1651.85 295.976C1627.86 295.976 1612.99 302.239 1607.26 314.752C1598.92 334.048 1584.31 343.696 1563.45 343.696C1557.19 343.696 1551.72 342.654 1547.03 340.57C1529.82 334.319 1521.21 322.838 1521.21 306.146C1521.21 278.955 1537.37 256.984 1569.71 240.232C1597.35 226.106 1625.25 219.032 1653.42 219.032C1671.14 219.032 1687.82 221.387 1703.46 226.076L1715.17 211.92C1724.01 200.848 1735.2 195.308 1748.74 195.308C1761.22 195.308 1772.41 199.486 1782.31 207.842C1792.21 216.198 1797.16 226.647 1797.16 239.171C1797.16 248.568 1793.24 257.706 1785.43 266.582L1773.71 279.115Z" fill="white"/>
<path d="M2853.38 380.174C2853.38 589.652 2683.56 759.468 2474.08 759.468C2264.61 759.468 2094.79 589.652 2094.79 380.174C2094.79 170.697 2264.61 0.882532 2474.08 0.882532C2683.56 0.882532 2853.38 170.697 2853.38 380.174Z" fill="#009FE3"/>
<path d="M2572.42 513.704C2546.92 536.125 2514.14 547.327 2474.08 547.327C2434.02 547.327 2401.24 536.085 2375.75 513.593C2350.25 491.112 2337.51 460.565 2337.51 421.963V259.248C2337.51 247.265 2341.67 237.748 2350 230.704C2358.34 223.661 2368.49 220.135 2380.47 220.135C2392.44 220.135 2402.59 223.661 2410.93 230.704C2419.26 237.748 2423.43 247.265 2423.43 259.248V427.443C2423.43 441.008 2427.97 452.089 2437.06 460.684C2446.15 469.291 2458.49 473.589 2474.08 473.589C2489.67 473.589 2502.01 469.301 2511.1 460.704C2520.19 452.108 2524.74 441.037 2524.74 427.492V140.756C2524.74 128.784 2528.9 119.276 2537.23 112.243C2545.57 105.209 2555.72 101.693 2567.7 101.693C2579.67 101.693 2589.82 105.22 2598.16 112.253C2606.49 119.287 2610.66 128.804 2610.66 140.787V422.232C2610.66 460.805 2597.91 491.301 2572.42 513.704Z" fill="white"/>
<path d="M3679.72 380.174C3679.72 589.652 3509.91 759.468 3300.43 759.468C3090.95 759.468 2921.14 589.652 2921.14 380.174C2921.14 170.697 3090.95 0.882532 3300.43 0.882532C3509.91 0.882532 3679.72 170.697 3679.72 380.174Z" fill="#3BAA35"/>
<path d="M3421.66 535.234C3413.06 542.007 3403.05 545.403 3391.59 545.403C3380.13 545.403 3370.11 542.007 3361.52 535.225C3352.92 528.431 3348.63 519.034 3348.63 507.021V336.271C3348.63 322.706 3344.08 311.735 3335 303.381C3325.9 295.025 3313.57 290.847 3297.98 290.847C3282.39 290.847 3270.05 295.005 3260.96 303.321C3251.86 311.635 3247.32 322.546 3247.32 336.051V341.502H3295.04C3308.6 341.502 3319.16 345.289 3326.72 352.863C3334.28 360.437 3338.06 369.454 3338.06 379.903C3338.06 390.353 3334.28 399.501 3326.72 407.335C3319.16 415.17 3308.6 419.087 3295.04 419.087H3247.32V506.961C3247.32 518.994 3243.03 528.411 3234.43 535.205C3225.83 541.997 3215.81 545.403 3204.36 545.403C3192.9 545.403 3182.88 542.007 3174.29 535.234C3165.69 528.451 3161.4 519.054 3161.4 507.051V341.913C3161.4 323.138 3164.78 306.177 3171.54 291.047C3178.3 275.919 3187.67 263.005 3199.64 252.305C3211.61 241.605 3225.91 233.39 3242.57 227.649C3259.22 221.909 3277.68 219.033 3297.98 219.033C3318.27 219.033 3336.73 221.909 3353.38 227.649C3370.03 233.39 3384.34 241.605 3396.31 252.305C3408.27 263.005 3417.64 275.919 3424.41 291.047C3431.17 306.177 3434.55 323.138 3434.55 341.913V507.051C3434.55 519.054 3430.26 528.451 3421.66 535.234Z" fill="white"/>
<path d="M4501.17 380.174C4501.17 589.652 4331.35 759.468 4121.87 759.468C3912.4 759.468 3742.58 589.652 3742.58 380.174C3742.58 170.697 3912.4 0.882532 4121.87 0.882532C4331.35 0.882532 4501.17 170.697 4501.17 380.174Z" fill="#662383"/>
<path d="M4237.96 516.288C4215.48 536.126 4187 546.044 4152.51 546.044C4126.37 546.044 4102.59 538.891 4081.17 524.564C4068.19 537.608 4051.85 544.12 4032.15 544.12C4015.03 544.12 4000.21 538.911 3987.7 528.482C3975.19 518.051 3968.94 505.799 3968.94 491.712C3968.94 471.384 3979.63 456.006 4001.02 445.566V258.636C4001.02 246.654 4005.31 237.267 4013.9 230.483C4022.5 223.711 4032.52 220.315 4043.98 220.315C4055.43 220.315 4065.45 223.711 4074.04 230.494C4082.64 237.276 4086.94 246.664 4086.94 258.656V421.44C4086.94 436.048 4093.21 448.571 4105.77 459.002C4117.27 467.878 4129.81 472.306 4143.4 472.306C4173.72 472.306 4188.89 453.27 4188.89 415.179V258.656C4188.89 246.664 4193.18 237.276 4201.77 230.494C4210.37 223.711 4220.39 220.315 4231.85 220.315C4243.3 220.315 4253.32 223.711 4261.92 230.494C4270.51 237.287 4274.81 246.684 4274.81 258.687V419.196C4274.81 462.007 4262.53 494.367 4237.96 516.288Z" fill="white"/>
</svg>
