<svg width="120" height="120" viewBox="0 0 120 120" fill="none" xmlns="http://www.w3.org/2000/svg">
<g id="checked_190411 1" clipPath="url(#clip0_5_872)">
<path id="Vector" d="M60 120C93.1371 120 120 93.1371 120 60C120 26.8629 93.1371 0 60 0C26.8629 0 0 26.8629 0 60C0 93.1371 26.8629 120 60 120Z" fill="#1DA7B4"/>
<path id="Vector_2" d="M44.6687 87.0663L75.5204 117.918C101.072 111.104 120 87.8234 120 60C120 59.4322 120 58.8644 120 58.2965L95.7728 35.9622L44.6687 87.0663Z" fill="#1F949F"/>
<g id="Group">
<path id="Vector_3" d="M61.5142 73.4385C64.164 76.0884 64.164 80.6309 61.5142 83.2808L56.0252 88.7697C53.3754 91.4196 48.8328 91.4196 46.183 88.7697L22.1451 64.5426C19.4953 61.8928 19.4953 57.3502 22.1451 54.7003L27.6341 49.2114C30.2839 46.5615 34.8265 46.5615 37.4763 49.2114L61.5142 73.4385Z" fill="white"/>
<path id="Vector_4" d="M82.5235 31.6088C85.1733 28.959 89.7159 28.959 92.3658 31.6088L97.8547 37.0978C100.505 39.7476 100.505 44.2902 97.8547 46.9401L56.2144 88.3912C53.5645 91.041 49.0219 91.041 46.3721 88.3912L40.8831 82.9022C38.2333 80.2524 38.2333 75.7098 40.8831 73.0599L82.5235 31.6088Z" fill="white"/>
</g>
</g>
<defs>
<clipPath id="clip0_5_872">
<rect width="120" height="120" fill="white"/>
</clipPath>
</defs>
</svg>
