<svg width="120" height="120" viewBox="0 0 120 120" fill="none" xmlns="http://www.w3.org/2000/svg">
<g id="alert_6324052 1">
<g id="Layer 35">
<path id="Vector" d="M93.75 6.375H26.25C20.9819 6.38491 15.9323 8.48206 12.2072 12.2072C8.48206 15.9323 6.38491 20.9819 6.375 26.25V93.75C6.38491 99.0181 8.48206 104.068 12.2072 107.793C15.9323 111.518 20.9819 113.615 26.25 113.625H93.75C99.0181 113.615 104.068 111.518 107.793 107.793C111.518 104.068 113.615 99.0181 113.625 93.75V26.25C113.615 20.9819 111.518 15.9323 107.793 12.2072C104.068 8.48206 99.0181 6.38491 93.75 6.375ZM60 98.625C58.3964 98.6287 56.8277 98.1563 55.4928 97.2677C54.1579 96.3791 53.1168 95.1143 52.5014 93.6334C51.886 92.1526 51.7241 90.5224 52.036 88.9494C52.3479 87.3764 53.1198 85.9314 54.2537 84.7975C55.3876 83.6635 56.8326 82.8917 58.4056 82.5798C59.9786 82.2678 61.6088 82.4298 63.0897 83.0452C64.5705 83.6606 65.8354 84.7017 66.724 86.0366C67.6126 87.3715 68.085 88.9401 68.0812 90.5437C68.0763 92.6855 67.2233 94.7381 65.7088 96.2526C64.1944 97.767 62.1418 98.62 60 98.625ZM69.8062 31.875L66.75 73.125C66.7309 73.4102 66.6041 73.6774 66.3951 73.8724C66.1862 74.0675 65.9108 74.1756 65.625 74.175H54.375C54.0892 74.1756 53.8138 74.0675 53.6049 73.8724C53.3959 73.6774 53.2691 73.4102 53.25 73.125L50.1938 31.875C50.1109 30.5362 50.3031 29.1947 50.7584 27.933C51.2138 26.6713 51.9227 25.5162 52.8414 24.5389C53.7601 23.5616 54.8692 22.7827 56.1004 22.2503C57.3315 21.718 58.6587 21.4433 60 21.4433C61.3413 21.4433 62.6685 21.718 63.8996 22.2503C65.1308 22.7827 66.2399 23.5616 67.1586 24.5389C68.0773 25.5162 68.7862 26.6713 69.2415 27.933C69.6969 29.1947 69.8891 30.5362 69.8062 31.875Z" fill="#1DA7B4"/>
</g>
</g>
</svg>
